<svg xmlns="http://www.w3.org/2000/svg" width="1280" height="620" viewBox="0 0 1280 620">
<defs><linearGradient id="bg" x2="1" y2="1"><stop stop-color="#f0f6fb"/><stop offset="1" stop-color="#e6f4ee"/></linearGradient><radialGradient id="glow"><stop stop-color="#aacbd6" stop-opacity=".65"/><stop offset="1" stop-color="#d9eae5" stop-opacity="0"/></radialGradient><filter id="shadow" x="-30%" y="-30%" width="160%" height="170%"><feDropShadow dx="0" dy="14" stdDeviation="20" flood-color="#254b52" flood-opacity=".14"/></filter></defs>
<style>text{font-family:system-ui,'Microsoft YaHei',sans-serif;fill:#254941}.label{font-size:15px;font-weight:600}.small{font-size:11px;fill:#55796e}.copy{font-size:15px}.title{font-size:27px;font-weight:650}</style>
<rect width="1280" height="620" rx="28" fill="url(#bg)"/><circle cx="250" cy="285" r="260" fill="url(#glow)"/>
<text x="46" y="52" class="title">CiteCiter · 选文动作轮盘</text><text x="46" y="78" class="small">交互结构示意 · Interaction diagram · 非运行截图</text>
<g filter="url(#shadow)"><path d="M 266.63 236.65 L 211.14 102.69 A 193 193 0 0 1 358.86 102.69 L 303.37 236.65 A 48 48 0 0 0 266.63 236.65" fill="#ffffffe0" stroke="#ffffff" stroke-width="1.5"/><text x="285" y="148" text-anchor="middle" class="label">自由提问</text><text x="285" y="170" text-anchor="middle" class="small">输入问题 · 选模型</text><path d="M 303.37 236.65 L 358.86 102.69 A 193 193 0 0 1 463.31 207.14 L 329.35 262.63 A 48 48 0 0 0 303.37 236.65" fill="#bce8d8b8" stroke="#ffffff" stroke-width="1.5"/><text x="374.095454429505" y="184.90454557049503" text-anchor="middle" class="label">解释这段</text><text x="374.095454429505" y="206.90454557049503" text-anchor="middle" class="small">侧边</text><path d="M 329.35 262.63 L 463.31 207.14 A 193 193 0 0 1 463.31 354.86 L 329.35 299.37 A 48 48 0 0 0 329.35 262.63" fill="#ffffffe0" stroke="#ffffff" stroke-width="1.5"/><text x="411" y="274" text-anchor="middle" class="label">找错误</text><text x="411" y="296" text-anchor="middle" class="small">悬浮</text><path d="M 329.35 299.37 L 463.31 354.86 A 193 193 0 0 1 358.86 459.31 L 303.37 325.35 A 48 48 0 0 0 329.35 299.37" fill="#ffffffe0" stroke="#ffffff" stroke-width="1.5"/><text x="374.095454429505" y="363.09545442950497" text-anchor="middle" class="label">翻译</text><text x="374.095454429505" y="385.09545442950497" text-anchor="middle" class="small">悬浮</text><path d="M 303.37 325.35 L 358.86 459.31 A 193 193 0 0 1 211.14 459.31 L 266.63 325.35 A 48 48 0 0 0 303.37 325.35" fill="#ffffffe0" stroke="#ffffff" stroke-width="1.5"/><text x="285" y="400" text-anchor="middle" class="label">定量板书</text><text x="285" y="422" text-anchor="middle" class="small">侧边</text><path d="M 266.63 325.35 L 211.14 459.31 A 193 193 0 0 1 106.69 354.86 L 240.65 299.37 A 48 48 0 0 0 266.63 325.35" fill="#ffffffe0" stroke="#ffffff" stroke-width="1.5"/><text x="195.90454557049503" y="363.095454429505" text-anchor="middle" class="label">总结卡片</text><text x="195.90454557049503" y="385.095454429505" text-anchor="middle" class="small">侧边</text><path d="M 240.65 299.37 L 106.69 354.86 A 193 193 0 0 1 106.69 207.14 L 240.65 262.63 A 48 48 0 0 0 240.65 299.37" fill="#ffffff36" stroke="#ffffff" stroke-width="1.5"/><text x="159" y="274" text-anchor="middle" class="label">空槽</text><text x="159" y="296" text-anchor="middle" class="small">自定义</text><path d="M 240.65 262.63 L 106.69 207.14 A 193 193 0 0 1 211.14 102.69 L 266.63 236.65 A 48 48 0 0 0 240.65 262.63" fill="#ffffff36" stroke="#ffffff" stroke-width="1.5"/><text x="195.90454557049497" y="184.90454557049503" text-anchor="middle" class="label">空槽</text><text x="195.90454557049497" y="206.90454557049503" text-anchor="middle" class="small">自定义</text><circle cx="285" cy="281" r="46" fill="#fffffff2"/><text x="285" y="279" text-anchor="middle" class="label">取消</text><text x="285" y="301" text-anchor="middle" class="small">Esc / 中心</text></g>
<path d="M 321 246 L 372 191" stroke="#388b71" stroke-width="3" stroke-linecap="round"/><circle cx="372" cy="191" r="5" fill="#388b71"/>
<text x="93" y="515" class="copy">选文 → 按住触发键 → 指向动作 → 松开</text><text x="93" y="542" class="small">需输入的动作先选模型；其他动作使用默认模型。</text>
<rect x="552" y="114" width="672" height="180" rx="22" fill="#ffffffe3" stroke="#fff" filter="url(#shadow)"/>
<text x="579" y="150" class="label">自由提问</text><rect x="578" y="170" width="620" height="45" rx="11" fill="#edf4f1"/><text x="592" y="199" class="copy">引用内容与问题保留在独立 Topic</text><text x="580" y="258" class="copy">问题 + 处理模型 · 失焦保留草稿</text><rect x="1083" y="231" width="112" height="39" rx="12" fill="#347d69"/><text x="1139" y="256" text-anchor="middle" style="fill:white;font-size:14px">开始 Citer</text>
<rect x="552" y="322" width="326" height="210" rx="22" fill="#ffffffe0" stroke="#fff"/><text x="576" y="358" class="label">侧边学习</text><rect x="575" y="382" width="169" height="112" rx="10" fill="#eef3f6"/><rect x="754" y="382" width="101" height="112" rx="10" fill="#d7ece2"/><text x="601" y="443" class="copy">来源对话</text><text x="772" y="443" class="copy">学习栏</text>
<rect x="897" y="322" width="326" height="210" rx="22" fill="#ffffff85" stroke="#fff" filter="url(#shadow)"/><text x="922" y="358" class="label">悬浮学习</text><text x="922" y="399" class="copy">拖动标题栏调整位置</text><text x="922" y="433" class="copy">随时切回侧边，保留 Topic</text><text x="922" y="481" class="small">透明材质 · 高光边缘 · 减少动态效果</text>
<text x="552" y="570" class="small">原生文件预览 / 导入阅读器 / 来源对话 → 统一动作 → 独立 Topic</text></svg>
